<mxfile host="app.diagrams.net" modified="2023-06-07T03:25:11.430Z" agent="Mozilla/5.0 (Windows NT 10.0; Win64; x64) AppleWebKit/537.36 (KHTML, like Gecko) Chrome/113.0.0.0 Safari/537.36" version="21.3.6" etag="26saqzV_2vE91yBebN2s" type="github">
  <diagram name="第 1 页" id="CbjKRmFTRRyLLyRecHhC">
    <mxGraphModel>
      <root>
        <mxCell id="0" />
        <mxCell id="1" parent="0" />
      </root>
    </mxGraphModel>
  </diagram>
</mxfile>
